# Blender 4.0.2
# www.blender.org
mtllib cutted_cone2.mtl
o Cone
v -0.658660 -0.000000 -1.502234
v -0.453807 -0.000000 -1.486106
v -0.256827 -0.000000 -1.438340
v -0.075289 -0.000000 -1.360772
v 0.083831 -0.000000 -1.256384
v 0.214417 -0.000000 -1.129186
v 0.311451 -0.000000 -0.984067
v 0.371204 -0.000000 -0.826604
v 0.391380 -0.000000 -0.662848
v 0.371204 -0.000000 -0.499092
v 0.311451 -0.000000 -0.341628
v 0.214417 -0.000000 -0.196509
v 0.083831 -0.000000 -0.069312
v -0.075289 0.000000 0.035077
v -0.256827 0.000000 0.112644
v -0.453807 0.000000 0.160410
v -0.658660 0.000000 0.176539
v -0.863513 0.000000 0.160410
v -1.060493 0.000000 0.112644
v -1.242031 0.000000 0.035077
v -1.401150 -0.000000 -0.069312
v -1.531736 -0.000000 -0.196509
v -1.628771 -0.000000 -0.341628
v -1.688524 -0.000000 -0.499092
v -1.708700 -0.000000 -0.662848
v -1.688524 -0.000000 -0.826604
v -1.628771 -0.000000 -0.984067
v -1.531736 -0.000000 -1.129186
v -1.401150 -0.000000 -1.256384
v -1.242031 -0.000000 -1.360772
v -1.060493 -0.000000 -1.438340
v -0.863513 -0.000000 -1.486106
v -0.658660 2.242868 -1.042620
v -0.566837 2.260084 -1.031863
v -0.480906 2.284163 -1.005894
v -0.404804 2.313677 -0.966552
v -0.341602 2.346998 -0.916299
v -0.293395 2.382445 -0.857947
v -0.261318 2.418412 -0.794414
v -0.245653 2.453448 -0.728519
v -0.245986 2.486312 -0.662848
v -0.261376 2.515985 -0.599677
v -0.290508 2.541662 -0.540947
v -0.331823 2.562735 -0.488274
v -0.383613 2.578761 -0.442980
v -0.444078 2.589439 -0.406130
v -0.511358 2.594584 -0.378572
v -0.583542 2.594110 -0.360967
v -0.658660 2.588024 -0.353806
v -0.734662 2.576429 -0.357413
v -0.809401 2.559527 -0.371935
v -0.880619 2.537643 -0.397304
v -0.945945 2.511245 -0.433197
v -1.002923 2.480973 -0.478965
v -1.049074 2.447666 -0.533575
v -1.081993 2.412380 -0.595535
v -1.099511 2.376394 -0.662848
v -1.099892 2.341189 -0.733007
v -1.082059 2.308392 -0.803042
v -1.045828 2.279683 -0.869647
v -0.992091 2.256668 -0.929388
v -0.922906 2.240727 -0.978982
v -0.841447 2.232865 -1.015605
v -0.751807 2.233595 -1.037187
vn -0.0000 -1.0000 -0.0000
vn -0.2308 0.2028 -0.9516
vn -0.3843 0.2080 -0.8995
vn -0.5357 0.2154 -0.8165
vn -0.6800 0.2244 -0.6981
vn -0.8082 0.2338 -0.5404
vn -0.9072 0.2419 -0.3443
vn -0.9619 0.2466 -0.1185
vn -0.9619 0.2466 0.1185
vn -0.9072 0.2419 0.3443
vn -0.8082 0.2338 0.5404
vn -0.6800 0.2244 0.6981
vn -0.5357 0.2154 0.8165
vn -0.3843 0.2080 0.8995
vn -0.2308 0.2028 0.9516
vn -0.0769 0.2002 0.9767
vn 0.0769 0.2002 0.9767
vn 0.2308 0.2028 0.9516
vn 0.3843 0.2080 0.8995
vn 0.5357 0.2154 0.8165
vn 0.6800 0.2244 0.6981
vn 0.8082 0.2338 0.5404
vn 0.9072 0.2419 0.3443
vn 0.9619 0.2466 0.1185
vn 0.9619 0.2466 -0.1185
vn 0.9072 0.2419 -0.3443
vn 0.8082 0.2338 -0.5404
vn 0.6800 0.2244 -0.6981
vn 0.5357 0.2154 -0.8165
vn 0.3843 0.2080 -0.8995
vn 0.2308 0.2028 -0.9516
vn 0.0769 0.2002 -0.9767
vn -0.0769 0.2002 -0.9767
vn 0.8083 0.2338 0.5404
vt 0.796822 0.014612
vt 0.514612 0.203178
vt 0.703178 0.485388
vt 0.208222 0.350862
vt 0.203178 0.485388
vt 0.158156 0.471731
vt 0.116663 0.449553
vt 0.080294 0.419706
vt 0.189603 0.340390
vt 0.050447 0.383337
vt 0.173790 0.326210
vt 0.028269 0.341844
vt 0.161508 0.309129
vt 0.014612 0.296822
vt 0.153227 0.290085
vt 0.010000 0.250000
vt 0.149151 0.270060
vt 0.014612 0.203178
vt 0.149238 0.250000
vt 0.028269 0.158156
vt 0.153242 0.230754
vt 0.050447 0.116663
vt 0.160766 0.213038
vt 0.080294 0.080294
vt 0.171314 0.197424
vt 0.116663 0.050447
vt 0.184337 0.184337
vt 0.158156 0.028269
vt 0.199269 0.174075
vt 0.203178 0.014612
vt 0.215546 0.166821
vt 0.250000 0.010000
vt 0.232629 0.162669
vt 0.296822 0.014612
vt 0.250000 0.161638
vt 0.283668 0.168719
vt 0.341844 0.028269
vt 0.299045 0.176598
vt 0.383337 0.050447
vt 0.312865 0.187135
vt 0.419706 0.080294
vt 0.324703 0.200085
vt 0.449553 0.116663
vt 0.334146 0.215146
vt 0.471731 0.158156
vt 0.340804 0.231938
vt 0.485388 0.203178
vt 0.344322 0.250000
vt 0.490000 0.250000
vt 0.344398 0.268777
vt 0.485388 0.296822
vt 0.340818 0.287618
vt 0.471731 0.341844
vt 0.333486 0.305784
vt 0.449553 0.383337
vt 0.322468 0.322468
vt 0.419706 0.419706
vt 0.308022 0.336836
vt 0.383337 0.449553
vt 0.290628 0.348085
vt 0.341844 0.471731
vt 0.270987 0.355510
vt 0.296822 0.485388
vt 0.250000 0.358586
vt 0.250000 0.490000
vt 0.228710 0.357032
vt 0.750000 0.490000
vt 0.796822 0.485388
vt 0.841844 0.471731
vt 0.883337 0.449553
vt 0.919706 0.419706
vt 0.949553 0.383337
vt 0.971731 0.341844
vt 0.985388 0.296822
vt 0.990000 0.250000
vt 0.985388 0.203178
vt 0.971731 0.158156
vt 0.949553 0.116663
vt 0.919706 0.080294
vt 0.883337 0.050447
vt 0.841844 0.028269
vt 0.750000 0.010000
vt 0.703178 0.014612
vt 0.658156 0.028269
vt 0.616663 0.050447
vt 0.580294 0.080294
vt 0.550447 0.116663
vt 0.528269 0.158156
vt 0.510000 0.250000
vt 0.514612 0.296822
vt 0.528269 0.341844
vt 0.550447 0.383337
vt 0.580294 0.419706
vt 0.616663 0.449553
vt 0.658156 0.471731
vt 0.267169 0.163685
s 0
f 16/1/1 24/2/1 32/3/1
f 63/4/2 32/5/2 31/6/2
f 30/7/3 63/4/3 31/6/3
f 29/8/4 62/9/4 30/7/4
f 28/10/5 61/11/5 29/8/5
f 27/12/6 60/13/6 28/10/6
f 26/14/7 59/15/7 27/12/7
f 25/16/8 58/17/8 26/14/8
f 24/18/9 57/19/9 25/16/9
f 23/20/10 56/21/10 24/18/10
f 22/22/11 55/23/11 23/20/11
f 21/24/12 54/25/12 22/22/12
f 20/26/13 53/27/13 21/24/13
f 19/28/14 52/29/14 20/26/14
f 18/30/15 51/31/15 19/28/15
f 17/32/16 50/33/16 18/30/16
f 16/34/17 49/35/17 17/32/17
f 47/36/18 16/34/18 15/37/18
f 46/38/19 15/37/19 14/39/19
f 45/40/20 14/39/20 13/41/20
f 44/42/21 13/41/21 12/43/21
f 43/44/22 12/43/22 11/45/22
f 42/46/23 11/45/23 10/47/23
f 41/48/24 10/47/24 9/49/24
f 40/50/25 9/49/25 8/51/25
f 39/52/26 8/51/26 7/53/26
f 38/54/27 7/53/27 6/55/27
f 37/56/28 6/55/28 5/57/28
f 36/58/29 5/57/29 4/59/29
f 35/60/30 4/59/30 3/61/30
f 34/62/31 3/61/31 2/63/31
f 33/64/32 2/63/32 1/65/32
f 64/66/33 1/65/33 32/5/33
f 32/3/1 1/67/1 2/68/1
f 2/68/1 3/69/1 4/70/1
f 4/70/1 5/71/1 6/72/1
f 6/72/1 7/73/1 8/74/1
f 8/74/1 9/75/1 10/76/1
f 10/76/1 11/77/1 12/78/1
f 12/78/1 13/79/1 14/80/1
f 14/80/1 15/81/1 16/1/1
f 16/1/1 17/82/1 18/83/1
f 18/83/1 19/84/1 20/85/1
f 20/85/1 21/86/1 22/87/1
f 22/87/1 23/88/1 24/2/1
f 24/2/1 25/89/1 26/90/1
f 26/90/1 27/91/1 28/92/1
f 28/92/1 29/93/1 30/94/1
f 30/94/1 31/95/1 32/3/1
f 32/3/1 2/68/1 4/70/1
f 4/70/1 6/72/1 8/74/1
f 8/74/1 10/76/1 12/78/1
f 12/78/1 14/80/1 16/1/1
f 16/1/1 18/83/1 20/85/1
f 20/85/1 22/87/1 24/2/1
f 24/2/1 26/90/1 28/92/1
f 28/92/1 30/94/1 32/3/1
f 32/3/1 4/70/1 8/74/1
f 8/74/1 12/78/1 16/1/1
f 16/1/1 20/85/1 24/2/1
f 24/2/1 28/92/1 32/3/1
f 32/3/1 8/74/1 16/1/1
f 63/4/2 64/66/2 32/5/2
f 30/7/3 62/9/3 63/4/3
f 29/8/4 61/11/4 62/9/4
f 28/10/5 60/13/5 61/11/5
f 27/12/6 59/15/6 60/13/6
f 26/14/7 58/17/7 59/15/7
f 25/16/8 57/19/8 58/17/8
f 24/18/9 56/21/9 57/19/9
f 23/20/10 55/23/10 56/21/10
f 22/22/11 54/25/11 55/23/11
f 21/24/12 53/27/12 54/25/12
f 20/26/13 52/29/13 53/27/13
f 19/28/14 51/31/14 52/29/14
f 18/30/15 50/33/15 51/31/15
f 17/32/16 49/35/16 50/33/16
f 16/34/17 48/96/17 49/35/17
f 47/36/18 48/96/18 16/34/18
f 46/38/19 47/36/19 15/37/19
f 45/40/20 46/38/20 14/39/20
f 44/42/21 45/40/21 13/41/21
f 43/44/34 44/42/34 12/43/34
f 42/46/23 43/44/23 11/45/23
f 41/48/24 42/46/24 10/47/24
f 40/50/25 41/48/25 9/49/25
f 39/52/26 40/50/26 8/51/26
f 38/54/27 39/52/27 7/53/27
f 37/56/28 38/54/28 6/55/28
f 36/58/29 37/56/29 5/57/29
f 35/60/30 36/58/30 4/59/30
f 34/62/31 35/60/31 3/61/31
f 33/64/32 34/62/32 2/63/32
f 64/66/33 33/64/33 1/65/33
