# Blender 4.0.2
# www.blender.org
mtllib cutted_cube.mtl
o Cube
v -0.953442 -0.805314 1.201007
v -1.218729 -0.955572 -0.775618
v 1.018775 -1.026475 0.953124
v 0.753489 -1.176733 -1.023501
v -0.819029 0.527057 1.081684
v 0.849307 -0.226931 -1.108562
v -1.019601 1.018289 -0.952391
v 1.049879 -0.718163 0.925512
vn -0.1000 -0.9910 0.0888
vn -0.1326 -0.0751 -0.9883
vn 0.9861 -0.1106 -0.1239
vn -0.9861 0.1106 0.1239
vn 0.1326 0.0751 0.9883
vt 0.375000 0.500000
vt 0.125000 0.750000
vt 0.125000 0.500000
vt 0.375000 0.750000
vt 0.494801 1.000000
vt 0.375000 1.000000
vt 0.375000 0.000000
vt 0.413888 0.250000
vt 0.375000 0.250000
vt 0.543055 0.500000
vt 0.623967 0.750000
vt 0.494801 0.000000
s 0
usemtl Material
f 1/1/1 4/2/1 3/3/1
f 2/4/2 6/5/2 4/6/2
f 4/7/3 8/8/3 3/9/3
f 5/10/4 2/4/4 1/1/4
f 8/8/5 1/1/5 3/9/5
f 1/1/1 2/4/1 4/2/1
f 2/4/2 7/11/2 6/5/2
f 4/7/3 6/12/3 8/8/3
f 5/10/4 7/11/4 2/4/4
f 8/8/5 5/10/5 1/1/5
